 <svg  version="1.0" xmlns="http://www.w3.org/2000/svg"  width="100.000000pt" height="100.000000pt" viewBox="0 0 100.000000 100.000000"  preserveAspectRatio="xMidYMid meet">  <g transform="translate(0.000000,100.000000) scale(0.050000,-0.050000)" fill="#0000ff" stroke="none"> <path d="M0 1935 c0 -58 47 -112 435 -500 l435 -435 -435 -435 c-388 -388 -435 -442 -435 -500 0 -164 89 -106 565 370 l435 435 435 -435 c388 -388 442 -435 500 -435 164 0 106 89 -370 565 l-435 435 435 435 c476 476 534 565 370 565 -58 0 -112 -47 -500 -435 l-435 -435 -435 435 c-476 476 -565 534 -565 370z"/> </g> </svg> 